<?xml version="1.0" encoding="UTF-8" standalone="no"?><svg width="16px" height="16px" viewBox="0 0 16 16" version="1.1" xmlns="http://www.w3.org/2000/svg" xmlns:xlink="http://www.w3.org/1999/xlink">        <title>E00CB518-4BF0-4A8B-8E55-4266C6E51A20</title>    <desc>Created with sketchtool.</desc>    <defs></defs>    <g id="Homepage" stroke="none" stroke-width="1" fill="none" fill-rule="evenodd">        <g id="1.1-Homepage" transform="translate(-404.000000, -2557.000000)" stroke="#5C6C79" stroke-width="0.2" fill="#5C6C79">            <g id="Group-23" transform="translate(0.000000, 2460.000000)">                <path d="M406.277062,100.514313 C406.191604,100.428854 406.191604,100.290458 406.277062,100.205 L407.205,99.2770625 C407.290458,99.1913125 407.428854,99.1913125 407.514313,99.2770625 L407.707833,99.4704375 C408.893021,98.5490625 410.382417,98 412,98 C413.617583,98 415.106979,98.5490625 416.292167,99.4704375 L416.485687,99.2770625 C416.571146,99.1913125 416.709542,99.1913125 416.795,99.2770625 L417.722938,100.205 C417.808396,100.290458 417.808396,100.428854 417.722938,100.514313 L417.529854,100.707833 C418.450938,101.893021 419,103.382417 419,105 C419,106.617583 418.450938,108.106979 417.529854,109.292167 L417.722938,109.485687 C417.808396,109.571146 417.808396,109.709833 417.722938,109.795292 L416.795,110.722938 C416.709542,110.808396 416.571146,110.808396 416.485687,110.722938 L416.292167,110.529417 C415.106979,111.450937 413.617583,112 412,112 C410.382417,112 408.893021,111.450937 407.707833,110.529417 L407.514313,110.722938 C407.428854,110.808396 407.290458,110.808396 407.205,110.722938 L406.277062,109.795292 C406.191604,109.709833 406.191604,109.571146 406.277062,109.485687 L406.470146,109.292167 C405.549062,108.106979 405,106.617583 405,105 C405,103.382417 405.549062,101.893021 406.470146,100.707833 L406.277062,100.514313 L406.277062,100.514313 L406.277062,100.514313 Z M406.740958,109.640271 L407.359583,110.258896 L409.834229,107.78425 L409.215604,107.165333 L406.740958,109.640271 L406.740958,109.640271 L406.740958,109.640271 Z M406.740958,100.359729 L409.215604,102.834667 L409.834229,102.21575 L407.359729,99.7408125 L406.740958,100.359729 L406.740958,100.359729 L406.740958,100.359729 Z M414.165771,102.215604 L414.784396,102.834521 L417.259042,100.359583 L416.640417,99.7406667 L414.165771,102.215604 L414.165771,102.215604 L414.165771,102.215604 Z M414.165771,107.784396 L416.640417,110.259042 L417.259042,109.640417 L414.784396,107.165479 L414.165771,107.784396 L414.165771,107.784396 L414.165771,107.784396 Z M408.019771,99.7825208 L409.903938,101.666542 C410.511042,101.284021 411.229708,101.0625 412,101.0625 C412.770292,101.0625 413.488958,101.284021 414.096063,101.666542 L415.980229,99.7825208 C414.876271,98.938875 413.496688,98.4375 412,98.4375 C410.503313,98.4375 409.123729,98.938875 408.019771,99.7825208 L408.019771,99.7825208 L408.019771,99.7825208 Z M417.217479,101.019771 L415.333312,102.903938 C415.716125,103.51075 415.9375,104.229417 415.9375,105 C415.9375,105.770583 415.716125,106.488958 415.333312,107.096063 L417.217479,108.980229 C418.060979,107.876271 418.5625,106.496688 418.5625,105 C418.5625,103.503313 418.061271,102.123729 417.217479,101.019771 L417.217479,101.019771 L417.217479,101.019771 Z M415.980229,110.217479 L414.096063,108.333458 C413.488958,108.716125 412.770292,108.9375 412,108.9375 C411.229708,108.9375 410.511042,108.715979 409.903938,108.333458 L408.019771,110.217479 C409.123729,111.061271 410.503313,111.5625 412,111.5625 C413.496688,111.5625 414.876271,111.061271 415.980229,110.217479 L415.980229,110.217479 L415.980229,110.217479 Z M406.782521,108.980229 L408.666688,107.096063 C408.283875,106.48925 408.0625,105.770292 408.0625,105 C408.0625,104.229417 408.283875,103.51075 408.666688,102.903938 L406.782521,101.019771 C405.938729,102.123729 405.4375,103.503313 405.4375,105 C405.4375,106.496688 405.938729,107.876271 406.782521,108.980229 L406.782521,108.980229 L406.782521,108.980229 Z M410.222292,101.984896 L410.298708,102.060875 C410.383729,102.146333 410.383729,102.285021 410.298708,102.370479 L409.370333,103.298417 C409.285312,103.383875 409.146479,103.383875 409.061021,103.298417 L408.985042,103.222146 C408.676896,103.743208 408.5,104.35075 408.5,105 C408.5,105.648958 408.676896,106.256792 408.984896,106.777708 L409.060875,106.701437 C409.146333,106.615979 409.285167,106.615979 409.370187,106.701437 L410.298563,107.629375 C410.383583,107.714833 410.383583,107.853521 410.298563,107.938979 L410.222146,108.01525 C410.7435,108.323104 411.351042,108.5 412,108.5 C412.648958,108.5 413.256937,108.323104 413.777708,108.015396 L413.701292,107.939125 C413.616271,107.853667 413.616271,107.714979 413.701292,107.629521 L414.629667,106.701583 C414.714688,106.616125 414.853521,106.616125 414.938979,106.701583 L415.014958,106.777854 C415.323104,106.256792 415.5,105.648958 415.5,105 C415.5,104.35075 415.323104,103.743208 415.015104,103.222292 L414.939125,103.298563 C414.853667,103.384021 414.714833,103.384021 414.629813,103.298563 L413.701437,102.370625 C413.616417,102.285167 413.616417,102.146479 413.701437,102.061021 L413.777854,101.985042 C413.256937,101.676896 412.648958,101.5 412,101.5 C411.351042,101.5 410.7435,101.676896 410.222292,101.984896 L410.222292,101.984896 Z" id="icn_HelpCenter"></path>            </g>        </g>    </g></svg>