<?xml version="1.0" encoding="UTF-8" standalone="no"?>
<svg width="16px" height="17px" viewBox="0 0 16 17" version="1.1" xmlns="http://www.w3.org/2000/svg" xmlns:xlink="http://www.w3.org/1999/xlink">
    <!-- Generator: sketchtool 39.1 (31720) - http://www.bohemiancoding.com/sketch -->
    <title>52AB1DDC-A8F4-4BC4-9231-88F8E6397F1C</title>
    <desc>Created with sketchtool.</desc>
    <defs></defs>
    <g id="Homepage" stroke="none" stroke-width="1" fill="none" fill-rule="evenodd">
        <g id="1.0-City-Selector" transform="translate(-469.000000, -516.000000)" fill="#A5AFB6">
            <g id="Group-18" transform="translate(419.000000, 375.000000)">
                <g id="Group-2" transform="translate(39.000000, 123.000000)">
                    <g id="icn_Search" transform="translate(11.000000, 18.000000)">
                        <path d="M6.22222222,0 C2.8,0 0,2.80730397 0,6.23845328 C0,9.66960258 2.8,12.4769066 6.22222222,12.4769066 C9.64444444,12.4769066 12.4444444,9.66960258 12.4444444,6.23845328 C12.4444444,2.80730397 9.64444444,0 6.22222222,0 L6.22222222,0 Z M6.22222222,11.3426423 C3.42222222,11.3426423 1.13131313,9.04575725 1.13131313,6.23845328 C1.13131313,3.4311493 3.42222222,1.13426423 6.22222222,1.13426423 C9.02222222,1.13426423 11.3131313,3.4311493 11.3131313,6.23845328 C11.3131313,9.04575725 9.02222222,11.3426423 6.22222222,11.3426423 L6.22222222,11.3426423 Z" id="Shape"></path>
                        <path d="M15.0464646,15.681203 C15.159596,15.5677766 15.2161616,15.4259936 15.2161616,15.2842105 C15.2161616,15.1424275 15.159596,15.0006445 15.0464646,14.887218 L10.5777778,10.3785177 C10.3515152,10.1516649 10.0121212,10.1516649 9.78585859,10.3785177 C9.67272727,10.4919441 9.61616162,10.6337272 9.61616162,10.7755102 C9.61616162,10.9172932 9.67272727,11.0590763 9.78585859,11.1725027 L14.2828283,15.681203 C14.3676768,15.7946294 14.5090909,15.8513426 14.6505051,15.8513426 C14.7919192,15.8513426 14.9333333,15.7946294 15.0464646,15.681203 L15.0464646,15.681203 Z" id="Path" stroke="#A5AFB6"></path>
                    </g>
                </g>
            </g>
        </g>
    </g>
</svg>